<svg width="1340" height="850" viewBox="0 0 1340 850" fill="none" xmlns="http://www.w3.org/2000/svg">
<rect width="1340" height="850" fill="#231F20"/>
<g style="mix-blend-mode:overlay" opacity="0.1">
<path d="M1023.19 504.516H1023.17C1002.03 504.502 982.237 496.314 967.437 481.436C952.549 466.476 944.398 446.474 944.446 425.098C944.582 381.9 979.895 346.842 1023.23 346.842H1023.43C1044.56 346.904 1064.36 355.208 1079.21 370.237C1093.95 385.156 1101.98 404.87 1101.83 425.754C1101.49 469.924 1066.95 504.516 1023.19 504.516ZM1022.45 338.257H1022.19C974.939 338.387 936.302 377.002 936.063 424.338C935.94 448.178 945.122 470.553 961.908 487.36C978.291 503.777 999.917 512.8 1022.86 512.8L1023.33 512.793C1071.01 512.533 1109.74 473.255 1109.67 425.228C1109.64 401.819 1100.6 379.943 1084.22 363.595C1067.83 347.253 1045.91 338.257 1022.45 338.257Z" fill="white" fill-opacity="0.75"/>
<path d="M1124.87 381.282C1111.89 390.379 1111.89 390.379 1115.27 405.504C1128.52 464.626 1082.92 520.418 1021.63 520.069C980.526 519.829 944.107 492.659 932.284 453.415C920.16 413.152 935.513 369.543 969.836 346.757C1004.9 323.486 1050.89 325.244 1082.36 352.168C1089.63 358.393 1094.26 358.592 1101.6 353.29C1112.18 345.649 1121.29 346.279 1128.04 353.564C1135.96 362.121 1134.55 374.496 1124.87 381.282ZM1022.93 264.678C975.925 264.774 933.751 285.063 904.357 317.152C904.33 377.889 904.268 488.028 904.159 533.839C933.417 565.982 975.461 586.162 1022.69 586.217C1111.67 586.306 1183.39 514.74 1183.54 425.718C1183.68 337.112 1111.27 264.5 1022.93 264.678Z" fill="white" fill-opacity="0.75"/>
<path d="M678.48 445.998V275.526C688.126 278.036 696.106 282.558 702.96 289.097C715.937 301.486 722.729 317.123 725.821 334.45C730.456 360.437 729.241 386.007 718.183 410.387C710.332 427.686 697.942 440.287 678.48 445.998ZM796.482 554.099C796.543 526.128 796.461 498.164 796.482 470.193C767.968 470.371 739.467 469.783 710.974 469.783C677.565 469.783 679.013 472.348 679.013 457.559C681.156 457.449 683.402 457.299 685.648 457.244C713.206 456.54 740.628 454.809 767.101 446.204C778.358 442.544 787.976 437.195 796.482 430.751C796.482 386.301 796.338 341.852 796.482 297.402C796.523 285.581 785.047 278.755 781.641 277.01C759.182 265.484 734.204 264.431 709.322 264.342C663.817 264.191 618.319 264.294 572.821 264.307C571.025 264.307 569.23 264.519 566.452 264.69C573.278 272.94 579.674 280.246 585.511 287.969C587.395 290.459 588.774 294.05 588.781 297.135C588.951 390.433 588.952 460.541 588.767 553.839C588.76 557.088 587.218 560.851 585.224 563.484C579.435 571.159 573.046 578.376 566.452 586.318H700.721C694.263 578.554 688.549 571.392 682.474 564.538C679.525 561.193 678.118 557.82 678.18 553.251C678.405 534.097 678.255 514.937 678.268 495.777C678.275 494.641 678.521 493.499 678.801 491.091C691.621 521.347 711.308 543.962 738.095 560.16C751.339 568.163 765.176 574.306 779.586 578.711L780.644 577.446C785.204 572.042 789.614 566.823 793.744 561.357C795.342 559.195 796.482 556.233 796.482 554.099Z" fill="white" fill-opacity="0.75"/>
<path d="M895.489 558.778L895.598 291.457C895.605 288.55 896.602 285.732 898.425 283.467L913.921 264.259H786.894L802.37 283.467C804.193 285.732 805.182 288.55 805.182 291.457V558.956C805.182 561.842 804.206 564.647 802.404 566.897L786.894 586.318H913.921L898.274 566.733C896.472 564.476 895.489 561.671 895.489 558.778Z" fill="white" fill-opacity="0.75"/>
<path d="M525.534 597.503V253.076C525.534 223.922 549.119 200.288 578.214 200.288H1171.78C1200.87 200.288 1224.46 223.922 1224.46 253.069V597.503C1224.46 626.658 1200.87 650.292 1171.78 650.292H578.214C549.119 650.292 525.534 626.658 525.534 597.503ZM1234.47 594.514V256.066C1234.47 219.722 1205.06 190.26 1168.8 190.26H581.197C544.928 190.26 515.526 219.722 515.526 256.066V594.514C515.526 630.858 544.928 660.32 581.197 660.32H1168.8C1205.06 660.32 1234.47 630.858 1234.47 594.514Z" fill="white" fill-opacity="0.75"/>
<path d="M502.455 590.413V260.159C502.455 212.447 541.058 173.764 588.672 173.764H1161.32C1208.94 173.764 1247.55 212.447 1247.55 260.159V590.413C1247.55 638.125 1208.94 676.809 1161.32 676.809H588.672C541.058 676.809 502.455 638.125 502.455 590.413ZM1257 587.588V262.991C1257 208.479 1212.9 164.29 1158.5 164.29H591.499C537.099 164.29 493 208.479 493 262.991V587.581C493 642.093 537.099 686.29 591.499 686.29H1158.5C1212.9 686.29 1257 642.093 1257 587.588Z" fill="white" fill-opacity="0.75"/>
</g>
</svg>
