<svg width="100" height="100" viewBox="0 0 100 100" fill="none" xmlns="http://www.w3.org/2000/svg">
<path d="M30.8276 2.71184C25.7736 2.95029 22.3222 3.75685 19.305 4.94245C16.1823 6.15941 13.5356 7.79246 10.9022 10.4354C8.26879 13.0783 6.64714 15.7269 5.43874 18.8543C4.26928 21.8782 3.47698 25.3324 3.25373 30.3892C3.03048 35.4461 2.98108 37.0716 3.00578 49.9707C3.03048 62.8698 3.08748 64.4868 3.33258 69.5541C3.57388 74.6071 4.37758 78.0576 5.56319 81.0757C6.78204 84.1984 8.41319 86.8441 11.0571 89.4785C13.7009 92.1129 16.3476 93.7307 19.4826 94.941C22.5036 96.1086 25.9588 96.9047 31.0147 97.126C36.0706 97.3474 37.698 97.3987 50.5933 97.374C63.4887 97.3493 65.1122 97.2923 70.1786 97.0519C75.245 96.8116 78.6773 96.0022 81.6964 94.8223C84.8191 93.6006 87.4668 91.9722 90.0992 89.3274C92.7317 86.6826 94.3524 84.0321 95.5598 80.9028C96.7302 77.8818 97.5254 74.4266 97.7448 69.3745C97.9662 64.3044 98.0184 62.6855 97.9937 49.7883C97.969 36.8911 97.9111 35.2742 97.6707 30.2087C97.4304 25.1433 96.6257 21.7034 95.4411 18.6833C94.2203 15.5606 92.5911 12.9168 89.9482 10.2805C87.3052 7.64426 84.6528 6.0245 81.5245 4.8199C78.5016 3.65045 75.0483 2.85339 69.9924 2.63489C64.9365 2.41639 63.3091 2.36034 50.409 2.38504C37.5089 2.40974 35.8939 2.46484 30.8276 2.71184ZM31.3824 88.5807C26.7511 88.3793 24.2364 87.6098 22.5606 86.9657C20.3414 86.1107 18.7606 85.0771 17.0905 83.4232C15.4204 81.7692 14.3944 80.1827 13.528 77.9683C12.8773 76.2924 12.0935 73.7806 11.8769 69.1494C11.6413 64.1438 11.5919 62.6409 11.5644 49.9593C11.5368 37.2777 11.5853 35.7767 11.8047 30.7692C12.0023 26.1418 12.7766 23.6243 13.4197 21.9494C14.2747 19.7274 15.3045 18.1494 16.9623 16.4802C18.62 14.8111 20.2018 13.7832 22.4181 12.9168C24.092 12.2632 26.6039 11.4861 31.2332 11.2657C36.2426 11.0282 37.7436 10.9807 50.4233 10.9531C63.103 10.9256 64.6078 10.9731 69.619 11.1935C74.2465 11.3949 76.765 12.1615 78.4379 12.8085C80.6581 13.6635 82.2379 14.6904 83.9071 16.351C85.5762 18.0116 86.6051 19.5877 87.4715 21.8088C88.1261 23.478 88.9032 25.9888 89.1217 30.621C89.3601 35.6304 89.4143 37.1324 89.4371 49.8111C89.4599 62.4898 89.4152 63.9956 89.1958 69.0012C88.9934 73.6324 88.2258 76.148 87.5808 77.8258C86.7258 80.044 85.695 81.6258 84.0363 83.294C82.3776 84.9622 80.7977 85.9901 78.5804 86.8565C76.9084 87.5091 74.3938 88.2881 69.7682 88.5085C64.7588 88.7441 63.2578 88.7935 50.5734 88.8211C37.8889 88.8486 36.3927 88.7973 31.3833 88.5807M70.1054 24.4926C70.1073 25.62 70.4435 26.7216 71.0715 27.6579C71.6995 28.5943 72.591 29.3234 73.6334 29.753C74.6758 30.1826 75.8221 30.2935 76.9275 30.0715C78.0329 29.8496 79.0476 29.3049 79.8434 28.5062C80.6391 27.7075 81.1801 26.6908 81.398 25.5846C81.6159 24.4784 81.5008 23.3325 81.0674 22.2917C80.634 21.2509 79.9016 20.362 78.9629 19.7375C78.0243 19.1129 76.9215 18.7808 75.7941 18.783C74.2827 18.7861 72.8343 19.3892 71.7676 20.4599C70.7008 21.5306 70.1029 22.9812 70.1054 24.4926ZM26.1108 49.927C26.1374 63.3981 37.0776 74.2936 50.5458 74.268C64.014 74.2423 74.9172 63.3031 74.8916 49.832C74.8659 36.361 63.9228 25.4625 50.4527 25.4891C36.9826 25.5157 26.0852 36.4579 26.1108 49.927ZM34.6665 49.9099C34.6603 46.7783 35.5829 43.7152 37.3176 41.1079C39.0523 38.5006 41.5211 36.4663 44.412 35.2622C47.3028 34.058 50.4858 33.7382 53.5585 34.343C56.6311 34.9479 59.4554 36.4503 61.6741 38.6603C63.8929 40.8703 65.4065 43.6886 66.0235 46.7588C66.6405 49.8291 66.3333 53.0133 65.1406 55.9089C63.9479 58.8045 61.9234 61.2814 59.323 63.0264C56.7226 64.7714 53.6632 65.7061 50.5316 65.7123C48.4522 65.7166 46.3923 65.3113 44.4696 64.5195C42.5469 63.7277 40.799 62.5648 39.3257 61.0974C37.8525 59.63 36.6827 57.8867 35.8833 55.9671C35.0839 54.0475 34.6704 51.9893 34.6665 49.9099Z" fill="black"/>
</svg>
