<svg width="100" height="100" viewBox="0 0 100 100" fill="none" xmlns="http://www.w3.org/2000/svg">
<path d="M83.9445 83.5261H69.8685V61.6996C69.8685 56.4948 69.7747 49.7947 62.5475 49.7947C55.2162 49.7947 54.0945 55.4655 54.0945 61.3206V83.5247H40.0184V38.6404H53.5314V44.7743H53.7206C55.073 42.4849 57.0271 40.6015 59.375 39.3247C61.7228 38.0479 64.3765 37.4256 67.0533 37.524C81.32 37.524 83.9504 46.8156 83.9504 58.9034L83.9445 83.5261ZM24.136 32.5051C22.5204 32.5053 20.941 32.0313 19.5976 31.1428C18.2541 30.2543 17.207 28.9913 16.5884 27.5135C15.9699 26.0357 15.8078 24.4095 16.1227 22.8405C16.4376 21.2715 17.2154 19.8303 18.3575 18.6989C19.4997 17.5676 20.9551 16.797 22.5396 16.4847C24.124 16.1723 25.7664 16.3322 27.2591 16.9441C28.7519 17.556 30.0278 18.5924 30.9256 19.9223C31.8234 21.2522 32.3028 22.8159 32.3031 24.4156C32.3033 25.4777 32.0921 26.5295 31.6818 27.5108C31.2715 28.4922 30.67 29.3839 29.9116 30.1351C29.1533 30.8863 28.2528 31.4822 27.2618 31.8888C26.2709 32.2955 25.2087 32.5049 24.136 32.5051ZM31.174 83.5261H17.0833V38.6404H31.174V83.5261ZM90.962 3.38605H10.0102C8.17279 3.36552 6.40226 4.0681 5.08778 5.33941C3.77331 6.61072 3.02242 8.34675 3 10.166V90.6531C3.02166 92.4732 3.7721 94.2104 5.08653 95.4831C6.40096 96.7557 8.17188 97.4597 10.0102 97.4403H90.962C92.8039 97.4632 94.5798 96.7612 95.8994 95.4886C97.219 94.216 97.9745 92.4768 98 90.6531V10.1602C97.9737 8.33733 97.2177 6.59933 95.8981 5.32805C94.5784 4.05677 92.803 3.3562 90.962 3.38024" fill="black"/>
</svg>
